<?xml version="1.0" standalone="no"?>
<!DOCTYPE svg PUBLIC "-//W3C//DTD SVG 1.0//EN" "http://www.w3.org/TR/2001/REC-SVG-20010904/DTD/svg10.dtd">
<svg xmlns="http://www.w3.org/2000/svg" xmlns:xlink="http://www.w3.org/1999/xlink" id="body_1" width="257" height="203">

<g transform="matrix(0.33234906 0 0 0.33234906 0.028104838 -0)">
    <path d="M309.47336 12.71102L773.11414 12.71102L773.11414 232.71663L309.47336 232.71663z" stroke="none" fill="#E6E6E6" fill-rule="nonzero" />
    <path d="M322.73132 31.57689L759.8569 31.57689L759.8569 215.13445L322.73132 215.13445z" stroke="none" fill="#FFFFFF" fill-rule="nonzero" />
    <path d="M309.27567 0L772.9165 0L772.9165 19.69684L309.27567 19.69684z" stroke="none" fill="#6C63FF" fill-rule="nonzero" />
    <path d="M327.56357 11.58218C 327.56357 10.574057 327.20715 9.713569 326.4943 9.000717C 325.78143 8.287867 324.92096 7.931441 323.91284 7.9314404C 322.90472 7.931441 322.04425 8.287867 321.3314 9.000717C 320.61856 9.713569 320.26215 10.574057 320.26212 11.58218C 320.26215 12.590305 320.61856 13.450792 321.3314 14.163643C 322.04425 14.876494 322.90472 15.23292 323.91284 15.23292C 324.92096 15.23292 325.78143 14.876494 326.4943 14.163643C 327.20715 13.450792 327.56357 12.590305 327.56357 11.58218" stroke="none" fill="#FFFFFF" fill-rule="nonzero" />
    <path d="M341.42056 11.58218C 341.42056 10.574057 341.06415 9.713569 340.3513 9.000717C 339.63846 8.287867 338.77795 7.931441 337.76984 7.9314404C 336.76172 7.931441 335.90125 8.287867 335.1884 9.000717C 334.47552 9.713569 334.1191 10.574057 334.1191 11.58218C 334.1191 12.590305 334.47552 13.450792 335.1884 14.163643C 335.90125 14.876494 336.76172 15.23292 337.76984 15.23292C 338.77795 15.23292 339.63846 14.876494 340.3513 14.163643C 341.06415 13.450792 341.42056 12.590305 341.42056 11.58218" stroke="none" fill="#FFFFFF" fill-rule="nonzero" />
    <path d="M355.2782 11.58218C 355.2782 10.574057 354.92178 9.713569 354.20892 9.000717C 353.4961 8.287867 352.6356 7.931441 351.62747 7.9314404C 350.61935 7.931441 349.75888 8.287867 349.04602 9.000717C 348.3332 9.713569 347.97675 10.574057 347.97675 11.58218C 347.97675 12.590305 348.3332 13.450792 349.04602 14.163643C 349.75888 14.876494 350.61935 15.23292 351.62747 15.23292C 352.6356 15.23292 353.4961 14.876494 354.20892 14.163643C 354.92178 13.450792 355.2782 12.590305 355.2782 11.58218" stroke="none" fill="#FFFFFF" fill-rule="nonzero" />
    <path d="M584.2717 61.27926L656.9478 61.27926L656.9478 185.43425L584.2717 185.43425z" stroke="none" fill="#F2F2F2" fill-rule="nonzero" />
    <path d="M425.64038 61.27709L572.23065 61.27709L572.23065 95.45216L425.64038 95.45216z" stroke="none" fill="#6C63FF" fill-rule="nonzero" />
    <path d="M425.64038 104.96926L572.23065 104.96926L572.23065 141.7399L425.64038 141.7399z" stroke="none" fill="#F2F2F2" fill-rule="nonzero" />
    <path d="M425.64038 151.257L572.23065 151.257L572.23065 185.43207L425.64038 185.43207z" stroke="none" fill="#F2F2F2" fill-rule="nonzero" />
    <path transform="matrix(1 0 0 1 -213.44292 -144.5982)"  d="M434.6459 511.69952C 434.6743 506.60892 432.52975 501.74796 428.7508 498.33704C 424.9718 494.92615 419.91727 493.28918 414.85614 493.83722C 414.06442 493.9269 413.2799 494.0715 412.50824 494.27L412.50824 494.27L352.04413 442.44257L355.65732 422.96707L325.85553 413.30896L316.87012 444.51965C 314.6875 452.2114 317.8094 460.42407 324.55032 464.72375L324.55032 464.72375L398.9317 511.76868C 398.93213 512.35376 398.96265 512.9384 399.02313 513.52045C 399.57248 518.582 402.255 523.16864 406.39716 526.1289C 410.53928 529.0891 415.74756 530.14166 420.71414 529.0222C 421.4279 528.86414 422.13098 528.6612 422.8192 528.4145C 429.8698 525.8654 434.58835 519.1966 434.6459 511.69952z" stroke="none" fill="#9F616A" fill-rule="nonzero" />
    <path transform="matrix(1 0 0 1 -213.44292 -144.5982)"  d="M284.3247 571.8073L362.2827 571.8073C 362.2827 574.04816 442.62808 575.8668 442.62808 575.8668C 443.88913 576.81635 445.03848 577.9058 446.05408 579.11444C 449.1058 582.7542 450.7738 587.355 450.7637 592.1048L450.7637 592.1048L450.7637 595.3524C 450.75952 606.5606 441.6745 615.6456 430.4663 615.6498L430.4663 615.6498L284.3247 615.6498C 273.1188 615.6401 264.03705 606.5583 264.02728 595.35236L264.02728 595.35236L264.02728 592.10474C 264.04285 580.90125 273.12122 571.8229 284.3247 571.8073z" stroke="none" fill="#3F3D56" fill-rule="nonzero" />
    <path d="M134.57286 470.24524L155.6822 470.24524L155.6822 606.64404L134.57286 606.64404z" stroke="none" fill="#3F3D56" fill-rule="nonzero" />
    <path transform="matrix(1 0 0 1 -213.44292 -144.5982)"  d="M429.20554 752.939C 429.20554 755.4928 397.21765 753.9269 357.75854 753.9269C 318.29944 753.9269 286.31155 755.49286 286.31155 752.939C 286.31155 750.3852 318.29944 730.1332 357.75854 730.1332C 397.21765 730.1332 429.20554 750.3851 429.20554 752.939z" stroke="none" fill="#3F3D56" fill-rule="nonzero" />
    <path d="M196.707 589.916L216.613 589.914L226.084 538.282L196.703 538.284L196.707 589.916L196.707 589.916" stroke="none" fill="#9F616A" fill-rule="nonzero" />
    <path transform="matrix(1 0 0 1 -213.44292 -144.5982)"  d="M405.0721 753.81055L469.2616 753.80817L469.2616 752.9963C 469.2617 746.3702 466.62955 740.01544 461.9442 735.33C 457.2589 730.6446 450.9042 728.01227 444.2781 728.0122L444.2781 728.0122L444.2755 728.0122L405.07092 728.0138L405.0721 753.81055z" stroke="none" fill="#2F2E41" fill-rule="nonzero" />
    <path transform="matrix(1 0 0 1 -213.44292 -144.5982)"  d="M439.924 702.4959L479.61105 613.49945C 486.48233 597.9444 480.2494 579.7203 465.29144 571.6312L465.29144 571.6312L379.20844 525.4704L339.92694 522.1293L303.69244 518.8357L303.43118 519.27814C 303.097 519.84265 295.30624 533.29926 300.57248 548.0545C 304.56705 559.24664 314.9575 567.98883 331.4551 574.0384C 369.96237 588.1578 414.44586 600.2254 431.78354 604.7574C 433.33337 605.15375 434.63995 606.19354 435.37405 607.61487C 436.10974 609.0189 436.2253 610.66656 435.69278 612.1596L435.69278 612.1596L398.8221 694.997C 398.04172 697.12634 398.29416 699.4973 399.50546 701.41455C 400.71677 703.3317 402.7496 704.5779 405.0077 704.78735L405.0077 704.78735L432.5579 706.79333C 432.7918 706.81555 433.02466 706.82666 433.2564 706.82666C 436.1389 706.8256 438.75107 705.12897 439.924 702.4959z" stroke="none" fill="#CBCBCB" fill-rule="nonzero" />
    <path d="M183.716 589.916L203.622 589.914L213.094 538.282L183.713 538.284L183.716 589.916L183.716 589.916" stroke="none" fill="#9F616A" fill-rule="nonzero" />
    <path transform="matrix(1 0 0 1 -213.44292 -144.5982)"  d="M392.08173 753.81055L456.27118 753.80817L456.27118 752.9963C 456.27124 746.3702 453.6391 740.01544 448.9538 735.33C 444.2685 730.6446 437.9138 728.01227 431.2877 728.0122L431.2877 728.0122L431.2851 728.0122L392.0805 728.0138L392.08173 753.81055z" stroke="none" fill="#2F2E41" fill-rule="nonzero" />
    <path transform="matrix(1 0 0 1 -213.44292 -144.5982)"  d="M425.30988 707.3673L464.99692 618.37085C 471.8682 602.81586 465.63525 584.59174 450.6773 576.5026L450.6773 576.5026L364.5943 530.3418L325.3128 527.0007L296.93216 524.5388L296.93604 524.1495C 296.60184 524.714 288.81113 538.1706 294.07736 552.92584C 298.07193 564.118 300.34335 572.86017 316.84103 578.9097C 355.3483 593.0291 399.8318 605.09674 417.16946 609.6287C 418.7193 610.0251 420.02588 611.06494 420.75998 612.4862C 421.49567 613.89026 421.6112 615.5379 421.0787 617.03094L421.0787 617.03094L384.208 699.86835C 383.42758 701.9977 383.68002 704.36865 384.89133 706.2859C 386.10263 708.20306 388.13547 709.4492 390.3936 709.6587L390.3936 709.6587L417.9438 711.6647C 418.1777 711.6869 418.41052 711.698 418.6423 711.698C 421.52478 711.697 424.1369 710.00037 425.30988 707.3673z" stroke="none" fill="#CBCBCB" fill-rule="nonzero" />
    <path transform="matrix(1 0 0 1 -213.44292 -144.5982)"  d="M350.51746 526.1626C 352.42026 524.8166 379.7458 539.15295 384.61716 527.7864C 361.884 470.95355 377.54953 446.41205 363.6244 413.82117C 358.65518 402.43253 348.7423 393.94806 336.72314 390.79626L336.72314 390.79626L300.59448 388.97266L300.40735 389.06305C 283.66675 397.26257 274.28308 415.46884 277.3181 433.86087C 277.44666 469.32974 298.6685 496.3817 291.24802 522.1079C 290.6193 524.2811 290.90298 526.6167 292.03375 528.5761C 293.13046 530.4705 294.96146 531.82745 297.09305 532.32556L297.09305 532.32556L344.7977 525.962C 347.05212 526.4982 349.42828 526.0383 351.31982 524.6997L351.31982 524.6997L350.51746 526.1626z" stroke="none" fill="#2F2E41" fill-rule="nonzero" />
    <path d="M139.09091 190.99814C 139.09091 179.98502 135.19719 170.58472 127.40971 162.79724C 119.62225 155.00978 110.221954 151.11606 99.20882 151.11604C 88.19569 151.11606 78.79539 155.00978 71.00792 162.79724C 63.22046 170.58472 59.32673 179.98502 59.326725 190.99814C 59.32673 202.01128 63.22046 211.41158 71.00792 219.19904C 78.79539 226.98651 88.19569 230.88025 99.20882 230.88023C 110.221954 230.88025 119.62225 226.98651 127.40971 219.19904C 135.19719 211.41158 139.09091 202.01128 139.09091 190.99814" stroke="none" fill="#9F616A" fill-rule="nonzero" />
    <path transform="matrix(1 0 0 1 -213.44292 -144.5982)"  d="M299.94833 372.20306C 302.06732 373.13028 306.40668 356.2455 304.4629 352.8684C 301.57214 347.84613 301.74304 347.8822 299.82404 344.55948C 297.90503 341.23676 297.47565 336.68875 299.9607 333.7651C 302.44574 330.84146 308.19653 331.22934 309.3307 334.89496C 308.6011 327.93243 315.48795 322.33563 322.3096 320.76285C 329.13126 319.19006 336.32693 320.16653 343.18622 318.76694C 351.14676 317.1426 359.42932 310.4698 356.2532 301.71594C 355.70813 300.2585 354.89212 298.91742 353.84827 297.7635C 350.17862 293.63748 345.04538 291.8757 340.02643 290.17218C 329.58533 286.6283 318.85855 283.03992 307.83936 283.43118C 289.73398 284.07394 272.6198 296.5898 266.51984 313.64877C 265.76047 315.77728 265.17218 317.96298 264.76056 320.18512C 260.97836 340.5219 272.7881 360.5818 291.96924 368.32602L291.96924 368.32602L299.94833 372.20306z" stroke="none" fill="#2F2E41" fill-rule="nonzero" />
    <path transform="matrix(1 0 0 1 -213.44292 -144.5982)"  d="M509.0972 436.33655L513.67065 463.4926C 513.7217 463.79538 513.6883 464.10632 513.5742 464.39136L513.5742 464.39136L477.69376 554.0447C 477.40094 554.7763 476.63696 555.2041 475.8602 555.07135C 475.0834 554.9386 474.50485 554.2814 474.47165 553.494L474.47165 553.494L472.95172 517.46655C 472.94162 517.22736 472.98303 516.9887 473.0732 516.7668L473.0732 516.7668L505.90015 435.9848C 506.18155 435.29227 506.88852 434.87076 507.63156 434.95248C 508.3746 435.0342 508.97305 435.59933 509.09723 436.3365L509.09723 436.3365L509.0972 436.33655z" stroke="none" fill="#3F3D56" fill-rule="nonzero" />
    <path d="M293.114 293.823L297.46 317.153L265.619 398.964L261.485 372.647L293.114 293.823L293.114 293.823" stroke="none" fill="#6C63FF" fill-rule="nonzero" />
    <path transform="matrix(1 0 0 1 -213.44292 -144.5982)"  d="M367.24713 553.6277C 368.03055 556.68604 470.8873 559.9963 471.95395 559.0712C 472.91086 557.8858 473.74014 556.60284 474.428 555.2436C 475.5058 553.3184 476.50388 551.3876 476.50388 551.3876L476.50388 551.3876L474.8134 518.8584L373.49207 508.0306C 373.49207 508.0306 369.0095 535.1764 367.6022 547.6476C 367.28436 549.624 367.1654 551.62744 367.24713 553.6277z" stroke="none" fill="#3F3D56" fill-rule="nonzero" />
    <path d="M248.114 377.702L248.123 405.727L203.309 402.541L205.292 374.657L248.114 377.702L248.114 377.702" stroke="none" fill="#000000" fill-rule="nonzero" fill-opacity="0.09803922" />
    <path d="M189.717 382.557L189.988 382.523L187.872 394.437L162.975 392.667L163.825 380.716L189.717 382.557L189.717 382.557" stroke="none" fill="#000000" fill-rule="nonzero" fill-opacity="0.09803922" />
    <path transform="matrix(1 0 0 1 -213.44292 -144.5982)"  d="M367.24713 553.6277C 368.03055 556.68604 470.8873 559.9963 471.95395 559.0712C 472.91086 557.8858 473.74014 556.60284 474.428 555.2436L474.428 555.2436L367.6022 547.6476C 367.28436 549.624 367.1654 551.62744 367.24713 553.6277z" stroke="none" fill="#000000" fill-rule="nonzero" fill-opacity="0.09803922" />
    <path transform="matrix(1 0 0 1 -213.44292 -144.5982)"  d="M325.94632 505.0513L412.71027 521.2433C 412.92737 521.7867 413.1722 522.3185 413.4439 522.8367C 415.82822 527.32214 420.00552 530.5838 424.93536 531.8092C 429.88663 533.0545 435.1344 532.1037 439.334 529.20056C 447.14062 523.841 449.40875 513.321 444.5041 505.22083C 439.5994 497.12067 429.2262 494.25507 420.859 498.6888C 420.15698 499.0654 419.48203 499.49042 418.83902 499.96075L418.83902 499.96075L343.47803 474.21677L339.62085 454.78784L308.36136 456.856L311.60037 489.42572C 312.40744 497.23062 318.23862 503.58194 325.94632 505.0513z" stroke="none" fill="#9F616A" fill-rule="nonzero" />
    <path transform="matrix(1 0 0 1 -213.44292 -144.5982)"  d="M307.30246 471.3831L352.72464 456.45428L342.12912 426.03146C 339.22427 417.69098 330.73346 412.65598 322.0218 414.10788C 313.20248 415.57776 306.77045 423.25613 306.86926 432.19653L306.86926 432.19653L307.30246 471.3831z" stroke="none" fill="#2F2E41" fill-rule="nonzero" />
    <path transform="matrix(1 0 0 1 -213.44292 -144.5982)"  d="M595.44293 755.4018L214.44293 755.4018C 214.08566 755.4018 213.75554 755.2112 213.5769 754.9018C 213.39827 754.5924 213.39827 754.2112 213.5769 753.9018C 213.75554 753.5924 214.08566 753.4018 214.44293 753.4018L214.44293 753.4018L595.44293 753.4018C 595.99524 753.4018 596.44293 753.8495 596.44293 754.4018C 596.44293 754.9541 595.99524 755.4018 595.44293 755.4018z" stroke="none" fill="#CBCBCB" fill-rule="nonzero" />
    <path transform="matrix(1 0 0 1 -213.44292 -144.5982)"  d="M743.6499 723.8954C 761.92365 733.3527 770.04834 753.9442 770.04834 753.9442C 770.04834 753.9442 748.5455 759.20233 730.2718 749.74506C 711.9981 740.2878 703.87335 719.6962 703.87335 719.6962C 703.87335 719.6962 725.37616 714.43805 743.6499 723.8954z" stroke="none" fill="#F1F1F1" fill-rule="nonzero" />
    <path transform="matrix(1 0 0 1 -213.44292 -144.5982)"  d="M737.80615 730.70764C 748.7108 748.1564 769.8921 754.5886 769.8921 754.5886C 769.8921 754.5886 773.39343 732.7309 762.4888 715.2821C 751.5841 697.8333 730.40283 691.4011 730.40283 691.4011C 730.40283 691.4011 726.9014 713.259 737.80615 730.70764z" stroke="none" fill="#F1F1F1" fill-rule="nonzero" />
    <path transform="matrix(1 0 0 1 -213.44292 -144.5982)"  d="M803.44293 755.00525L689.44293 755.00525C 688.8906 755.00525 688.44293 754.55756 688.44293 754.00525C 688.44293 753.45294 688.8906 753.00525 689.44293 753.00525L689.44293 753.00525L803.44293 753.00525C 803.99524 753.00525 804.44293 753.45294 804.44293 754.00525C 804.44293 754.55756 803.99524 755.00525 803.44293 755.00525z" stroke="none" fill="#CBCBCB" fill-rule="nonzero" />
</g>
</svg>